<?xml version="1.0" encoding="utf-8"?>
<!DOCTYPE svg PUBLIC "-//W3C//DTD SVG 1.1//EN" "http://www.w3.org/Graphics/SVG/1.1/DTD/svg11.dtd">
<svg version="1.1" id="logo" xmlns="http://www.w3.org/2000/svg" xmlns:xlink="http://www.w3.org/1999/xlink" x="0px" y="0px"
	 width="517px" height="157px" viewBox="0 0 517 157" enable-background="new 0 0 517 157" xml:space="preserve">
<g>
	<path fill="#FFFFFF" d="M104.866,38.859c0,0-10.367,9.719-4.535,22.158c0,0,4.275,11.015,16.457,15.163
		c12.18,4.145,24.231-3.241,27.082-11.274c0,0-6.139,7.86-17.049,6.676c-10.163-1.104-16.165-4.787-21.825-14.516
		C102.922,53.502,102.08,43.978,104.866,38.859z"/>
	<path fill="#FFFFFF" d="M116.852,34.518c0,0-7.645,7.451-3.499,16.91c4.147,9.46,12.116,11.403,17.688,11.533
		c5.572,0.13,12.634-3.823,14.318-9.978c0,0-3.499,5.896-12.051,5.832c-8.553-0.065-15.873-6.773-17.623-13.477
		C113.935,38.635,116.852,34.518,116.852,34.518z"/>
	<path fill="#FFFFFF" d="M126.636,32.315c0,0-5.27,4.968-1.944,11.468c2.851,5.573,9.006,6.609,10.82,6.609
		c1.813,0,6.608-0.972,8.358-5.831c0,0-2.333,3.435-6.544,3.24c-4.211-0.195-9.653-3.733-11.144-8.229
		C124.691,35.076,125.988,33.482,126.636,32.315z"/>
</g>
<g>
	<g>
		<g>
			<g>
				<path fill="#FFFFFF" d="M167.969,38c-0.188,0-0.385,0.126-0.438,0.281s-0.39,1.599-0.751,3.208l-0.131,0.586
					c-0.361,1.61-0.707,3.151-0.769,3.426C165.819,45.776,165.98,46,166.238,46c0.259,0,1.82,0,3.47,0h2.147c1.65,0,3.171,0,3.38,0
					c0.209,0,0.415-0.193,0.456-0.43c0.042-0.237,0.36-1.75,0.708-3.363l0.105-0.489c0.348-1.613,0.679-3.109,0.736-3.325
					S177.183,38,176.983,38s-1.712,0-3.362,0h-2.31C169.662,38,168.158,38,167.969,38z"/>
			</g>
			<g>
				<path fill="#FFFFFF" d="M160.034,72.509c-1.555,3.653-2.038,5.557-6.866,5.29c-0.292-0.016-0.292-0.016-0.292-0.016
					c-0.237,0.018-0.467,0.146-0.511,0.282s-0.467,1.542-0.94,3.123l-0.426,1.42c-0.474,1.581-0.94,3.216-1.036,3.633
					S149.986,87,150.23,87s1.793,0,3.443,0h2.746c1.65,0,3.146,0,3.324,0c0.178,0,0.44-0.192,0.583-0.428c0,0,0,0,0.431-0.081
					c1.762-0.332,6.403-2.14,8.072-9.792c0.048-0.221,0.048-0.221,0.048-0.221c0.049-0.309,0.121-0.724,0.16-0.923
					c0.039-0.199,0.347-1.683,0.684-3.298l4.187-20.03c0.337-1.615,0.666-3.227,0.73-3.582c0.064-0.355-0.108-0.646-0.383-0.646
					c-0.274,0-1.849,0-3.499,0h-1.986c-1.65,0-3.136,0-3.302,0c-0.167,0-0.331,0.171-0.366,0.381s-0.342,1.702-0.682,3.316
					l-3.491,16.587c-0.34,1.614-0.641,3.087-0.668,3.271c0,0,0,0-0.064,0.309C160.145,72.1,160.086,72.384,160.034,72.509z"/>
			</g>
		</g>
	</g>
	<path fill="#FFFFFF" d="M218.12,56.007c2.938-6.306,2.592-12.958,2.592-12.958c-1.037-11.576-9.762-14.945-17.624-14.945
		c-7.861,0-20.732,2.338-24.188,23.244C175.444,72.254,191.167,72,191.167,72h26.608l2.591-8.297l-5.01,0.125L218.12,56.007z
		 M210,49.465L205.767,64h-11.144c-7.17,0-5.27-13.489-5.27-13.489s2.073-13.163,13.217-13.163
		C213.714,37.349,210,49.465,210,49.465z"/>
	<g>
		<path fill="#FFFFFF" d="M229.135,37.475c-0.214,0.001-0.429,0.184-0.479,0.406c-0.049,0.222-0.381,1.721-0.738,3.332L225.2,53.466
			c-0.357,1.611-0.707,3.187-0.776,3.502c-0.07,0.315-0.173,0.755-0.229,0.977c0,0,0,0-0.101,0.674
			c-0.493,3.274-0.981,12.914,10.186,13.514c0.36,0.019,0.36-0.062,0.36-0.062c0.417,0.005,0.928-0.071,1.136-0.071
			c0.208,0,1.728,0,3.378,0h7.477c1.65,0,3.374,0,3.831,0s0.9-0.236,0.985-0.623s0.443-1.982,0.796-3.593l5.683-25.946
			c0.353-1.612,0.715-3.474,0.806-3.885S258.638,37,258.323,37s-1.922,0-3.572,0h-1.344c-1.65,0-3.15,0-3.334,0
			s-0.374,0.393-0.421,0.608s-0.38,1.817-0.738,3.428l-4.127,18.625c-0.358,1.611-0.712,3.231-0.787,3.568
			c-0.075,0.336-0.408,0.622-0.741,0.618s-1.771-0.014-3.196-0.031c-1.425-0.017-2.786-0.03-3.024-0.033
			c-0.238-0.002-0.626-0.012-0.864-0.022c0,0,0,0-0.543-0.222c-1.059-0.434-2.541-1.643-2.069-5.006
			c0.028-0.202,0.028-0.201,0.028-0.201c0.043-0.234,0.124-0.658,0.181-0.942c0.057-0.285,0.365-1.842,0.686-3.46l2.46-12.398
			c0.321-1.619,0.635-3.203,0.698-3.521c0.063-0.318-0.157-0.576-0.49-0.575c-0.333,0.001-1.955,0.009-3.604,0.017l-0.998,0.005
			C230.874,37.466,229.349,37.474,229.135,37.475z"/>
	</g>
	<g>
		<path fill="#FFFFFF" d="M282.188,37.013c-0.316-0.013-0.63-0.025-0.938-0.033c-12.277-0.351-17.747,3.011-20.778,12.721
			c-0.133,0.422-0.133,0.422-0.133,0.422c-0.137,0.484-0.336,1.135-0.441,1.448c0,0,0,0-0.257,0.941
			c-0.892,3.254-2.578,10.968,0.094,15.053c0.113,0.172,0.234,0.338,0.362,0.497c0.167,0.205,0.332,0.401,0.496,0.587
			c3.438,3.901,6.357,3.648,9.79,3.912c0.396,0.031,0.396,0.031,0.396,0.031c0.449,0.048,1.017,0.088,1.26,0.088s1.792,0,3.442,0
			h7.175c1.65,0,3.199,0,3.442,0s0.508-0.238,0.589-0.53c0.08-0.292,0.503-1.832,0.939-3.423l0.155-0.565
			c0.437-1.591,0.886-3.229,0.999-3.641s-0.131-0.738-0.542-0.726c-0.411,0.012-2.097,0.027-3.747,0.033l-8.621,0.031
			c-1.65,0.006-3.209,0.011-3.465,0.011s-0.615-0.03-0.8-0.067c0,0,0,0-0.473-0.166c-0.967-0.338-2.506-1.091-2.955-2.535
			c-0.073-0.233-0.073-0.233-0.073-0.233c-0.028-0.286-0.104-0.716-0.169-0.957c0,0,0,0,0.115-0.578
			c0.069-0.358,0.069-0.358,0.069-0.358c0.27-0.444,0.744-0.808,1.055-0.808c0.31,0,1.913,0,3.563,0h13.222c1.65,0,3.34,0,3.756,0
			c0.415,0,0.843-0.363,0.951-0.807c0.108-0.443,0.438-1.797,0.732-3.007c0.296-1.21,0.572-2.344,0.614-2.519
			c0.042-0.175,0.105-0.447,0.141-0.604c0,0,0,0,0.072-0.49c0.412-2.827,1.076-12.467-8.798-13.628
			C283.031,37.063,282.619,37.031,282.188,37.013z M282.911,49.485c0,0.303-0.216,0.659-0.432,0.939
			c-0.216,0.28-0.216,0.28-0.216,0.28c-0.119,0.113-0.454,0.206-0.745,0.206s-1.879,0-3.529,0h-4.194c-1.65,0-3.268,0-3.594,0
			s-0.55-0.19-0.495-0.422c0,0,0,0,0.259-0.618c0.654-1.558,2.336-4.364,6.06-4.832c0.349-0.044,0.714-0.067,1.1-0.067
			c0.358,0,0.696,0.014,1.013,0.039c3.915,0.314,4.632,2.463,4.754,3.693C282.928,49.069,282.911,49.354,282.911,49.485z"/>
	</g>
	<g>
		<path fill="#FFFFFF" d="M301.117,37c-0.321,0-0.643,0.484-0.714,0.811c-0.071,0.327-0.419,2.021-0.771,3.633l-5.719,26.183
			c-0.353,1.612-0.719,3.226-0.812,3.652c-0.094,0.427,0.131,0.722,0.499,0.722s2.02,0,3.67,0h0.565c1.65,0,3.277,0,3.615,0
			c0.339,0,0.677-0.191,0.75-0.522c0.074-0.332,0.428-1.881,0.787-3.491l3.997-17.937c0.359-1.61,0.706-3.159,0.772-3.453
			c0.065-0.294,0.357-0.53,0.648-0.532c0.29-0.001,1.878-0.005,3.528-0.012l12.726-0.052c1.65-0.007,3.233-0.013,3.518-0.014
			c0.285-0.001,0.543-0.23,0.573-0.509c0,0,0,0-0.014-0.768c-0.042-2.181-0.656-6.463-4.749-7.176
			c-0.411-0.072-0.411-0.289-0.411-0.289C323.066,37.23,322.396,37,322.088,37c-0.31,0-1.912,0-3.563,0H304.7
			C303.05,37,301.438,37,301.117,37z"/>
	</g>
	<g>
		<path fill="#FFFFFF" d="M319.475,48.404c-0.155,0-0.241,0.139-0.192,0.308s0.463,1.605,0.92,3.19l2.284,7.93
			c0.457,1.585,0.875,3.035,0.929,3.222c0.054,0.186,0.085,0.424,0.068,0.528c0,0,0,0-0.063,0.332
			c-0.103,0.54-0.103,0.54-0.103,0.54c-0.249,1.091-0.745,3.006-1.104,4.256c-0.358,1.25-0.728,2.457-0.819,2.781
			c-0.093,0.324-0.004,0.509,0.198,0.509s1.717,0,3.367,0h3.004c1.65,0,3.15,0,3.335,0s0.362-0.024,0.396-0.153
			s0.397-1.5,0.81-3.098l0.28-1.063c0.412-1.598,0.788-3.047,0.837-3.232c0.048-0.186,0.206-0.492,0.352-0.687
			s1.073-1.434,2.062-2.755l19.14-25.587c0.988-1.321,1.927-2.701,2.086-2.914c0.16-0.213,0.066-0.512-0.206-0.512s-1.846,0-3.496,0
			h-3.678c-1.65,0-3.165,0-3.367,0s-0.451,0.246-0.554,0.393c-0.102,0.147-0.958,1.438-1.901,2.792l-10.652,15.309
			c-0.943,1.354-1.864,2.69-2.046,2.951s-0.386,0.263-0.455-0.004c-0.068-0.268-0.35-1.358-0.625-2.428
			c-0.274-1.07-0.54-2.098-0.588-2.287c-0.049-0.189-0.259-0.342-0.467-0.342c-0.207,0-1.727,0.004-3.377,0.008l-3.093,0.007
			C321.104,48.4,319.629,48.404,319.475,48.404z"/>
	</g>
</g>
<g>
	<path fill="#FFFFFF" d="M393.649,23.304c1.688,3.564,2.904,7.22,3.656,10.969h21.938v8.156l-34.875,32.344
		c2.25,2.25,5.247,3.375,9,3.375h30.094v7.594h-32.906c-5.814,0-10.596-1.688-14.344-5.063c-4.689,3.56-10.503,5.437-17.438,5.625
		v-6.75c3.748-1.125,6.75-2.905,9-5.344l32.906-31.781h-37.969v-8.156h22.219c-0.378-3.186-1.314-6.842-2.813-10.969H393.649z"/>
	<path fill="#FFFFFF" d="M494.337,26.116v13.219h-8.438v6.188h-14.906c-1.688,1.503-3.472,2.813-5.344,3.938
		c5.063,2.813,7.594,7.409,7.594,13.781v14.063c0.185,6.75-3.094,10.028-9.844,9.844h-9.844v-7.594h5.063
		c2.25,0,3.278-1.028,3.094-3.094v-1.125c-6.565,3.938-16.594,7.124-30.094,9.563V78.71c12.186-3.186,22.219-7.967,30.094-14.344
		c0-0.185,0-0.466,0-0.844c-0.189-0.374-0.281-0.655-0.281-0.844c-6.377,4.315-16.221,7.501-29.531,9.563v-6.75
		c9.936-2.061,18.654-5.717,26.156-10.969c0-0.185-0.097-0.281-0.281-0.281c-0.189-0.185-0.378-0.281-0.563-0.281
		c-5.814,2.25-13.971,4.034-24.469,5.344v-6.469c9.563-1.688,16.778-4.122,21.656-7.313h-14.063v-6.188h-8.719V26.116h24.469V22.46
		h14.625v3.656H494.337z M443.149,33.991v3.938h39.656v-3.938H443.149z M484.212,59.304c0.936,7.69,4.873,13.781,11.813,18.281
		v7.313c-14.44-5.625-22.034-14.155-22.781-25.594v-7.875h10.125c3.186,0.189,6.469-0.466,9.844-1.969v8.438
		c-2.628,0.94-5.344,1.406-8.156,1.406H484.212z"/>
</g>
<g>
	<path fill="#FFFFFF" d="M217.981,80.096L214.805,87h-1.949l-0.375-3.958L210.852,87h-1.873l-1.156-6.904h2.564l0.419,3.479
		l1.47-3.479h2.002l0.343,3.479l1.533-3.479H217.981z"/>
	<path fill="#FFFFFF" d="M218.781,80.096h2.301l-0.276,1.665c0.479-1.246,1.212-1.87,2.199-1.87c0.078,0,0.185,0.012,0.322,0.034
		l-0.308,2.461c-0.237-0.014-0.395-0.021-0.472-0.021c-0.57,0-0.988,0.133-1.255,0.399s-0.457,0.738-0.57,1.416L220.252,87h-2.627
		L218.781,80.096z"/>
	<path fill="#FFFFFF" d="M226.94,80.096L225.783,87h-2.682l1.157-6.904H226.94z M227.383,77.45l-0.34,2.03h-2.682l0.34-2.03H227.383
		z"/>
	<path fill="#FFFFFF" d="M232.391,80.096l-0.301,1.764h-1.248l-0.414,2.461c-0.042,0.241-0.063,0.394-0.063,0.458
		c0,0.337,0.215,0.506,0.644,0.506c0.187,0,0.404-0.027,0.65-0.082L231.359,87c-0.492,0.104-0.964,0.157-1.415,0.157
		c-0.561,0-0.977-0.07-1.248-0.212s-0.492-0.342-0.663-0.602s-0.256-0.602-0.256-1.025c0-0.178,0.041-0.511,0.123-0.998l0.409-2.461
		h-0.948l0.294-1.764h0.952l0.381-2.044l2.506-0.048l-0.353,2.092H232.391z"/>
	<path fill="#FFFFFF" d="M239.87,84.054h-4.758c-0.023,0.188-0.034,0.327-0.034,0.419c0,0.303,0.097,0.538,0.291,0.708
		c0.194,0.169,0.438,0.254,0.735,0.254c0.561,0,0.957-0.292,1.189-0.875l2.324,0.376c-0.301,0.677-0.787,1.224-1.459,1.643
		c-0.672,0.418-1.418,0.627-2.239,0.627c-1.03,0-1.865-0.293-2.505-0.878c-0.64-0.586-0.96-1.385-0.96-2.396
		c0-1.099,0.378-2.041,1.135-2.826c0.756-0.787,1.746-1.18,2.967-1.18c1.035,0,1.858,0.305,2.471,0.914
		c0.613,0.61,0.919,1.42,0.919,2.43C239.945,83.496,239.92,83.758,239.87,84.054z M237.381,82.728
		c0.023-0.142,0.034-0.251,0.034-0.328c0-0.246-0.076-0.46-0.229-0.643s-0.366-0.273-0.639-0.273c-0.292,0-0.556,0.11-0.793,0.332
		c-0.237,0.221-0.383,0.524-0.438,0.912H237.381z"/>
	<path fill="#FFFFFF" d="M248.129,77.669L246.571,87h-2.627l1.559-9.331H248.129z"/>
	<path fill="#FFFFFF" d="M255.606,84.054h-4.758c-0.022,0.188-0.034,0.327-0.034,0.419c0,0.303,0.097,0.538,0.29,0.708
		c0.194,0.169,0.439,0.254,0.735,0.254c0.561,0,0.957-0.292,1.189-0.875l2.324,0.376c-0.301,0.677-0.787,1.224-1.46,1.643
		c-0.672,0.418-1.418,0.627-2.238,0.627c-1.03,0-1.865-0.293-2.506-0.878c-0.64-0.586-0.96-1.385-0.96-2.396
		c0-1.099,0.378-2.041,1.135-2.826c0.757-0.787,1.745-1.18,2.967-1.18c1.034,0,1.858,0.305,2.472,0.914
		c0.612,0.61,0.919,1.42,0.919,2.43C255.681,83.496,255.656,83.758,255.606,84.054z M253.118,82.728
		c0.022-0.142,0.034-0.251,0.034-0.328c0-0.246-0.076-0.46-0.229-0.643c-0.152-0.183-0.365-0.273-0.639-0.273
		c-0.292,0-0.556,0.11-0.793,0.332c-0.237,0.221-0.383,0.524-0.438,0.912H253.118z"/>
	<path fill="#FFFFFF" d="M263.064,81.695l-2.031,0.444c-0.154-0.446-0.58-0.67-1.277-0.67c-0.488,0-0.732,0.137-0.732,0.41
		c0,0.241,0.234,0.403,0.705,0.485c0.957,0.165,1.631,0.346,2.023,0.541c0.391,0.196,0.686,0.445,0.885,0.748
		c0.197,0.304,0.297,0.646,0.297,1.029c0,0.692-0.291,1.276-0.871,1.753c-0.582,0.476-1.465,0.714-2.648,0.714
		c-0.88,0-1.647-0.172-2.3-0.517c-0.654-0.344-1.063-0.859-1.228-1.548l2.16-0.314c0.169,0.497,0.651,0.745,1.45,0.745
		c0.309,0,0.539-0.045,0.689-0.133c0.15-0.09,0.227-0.19,0.227-0.305c0-0.109-0.051-0.19-0.15-0.242
		c-0.102-0.053-0.354-0.125-0.76-0.217c-0.806-0.183-1.38-0.346-1.722-0.489s-0.633-0.372-0.871-0.687
		c-0.24-0.314-0.359-0.679-0.359-1.094c0-0.706,0.28-1.287,0.841-1.742c0.561-0.456,1.319-0.684,2.276-0.684
		c0.871,0,1.613,0.168,2.229,0.502C262.51,80.763,262.9,81.185,263.064,81.695z"/>
	<path fill="#FFFFFF" d="M270.379,81.695l-2.031,0.444c-0.154-0.446-0.58-0.67-1.277-0.67c-0.488,0-0.732,0.137-0.732,0.41
		c0,0.241,0.234,0.403,0.705,0.485c0.957,0.165,1.631,0.346,2.023,0.541c0.391,0.196,0.686,0.445,0.885,0.748
		c0.197,0.304,0.297,0.646,0.297,1.029c0,0.692-0.291,1.276-0.871,1.753c-0.582,0.476-1.465,0.714-2.648,0.714
		c-0.881,0-1.646-0.172-2.301-0.517c-0.654-0.344-1.063-0.859-1.227-1.548l2.16-0.314c0.168,0.497,0.65,0.745,1.449,0.745
		c0.309,0,0.539-0.045,0.689-0.133c0.15-0.09,0.227-0.19,0.227-0.305c0-0.109-0.051-0.19-0.15-0.242
		c-0.102-0.053-0.354-0.125-0.76-0.217c-0.807-0.183-1.381-0.346-1.723-0.489s-0.633-0.372-0.871-0.687
		c-0.24-0.314-0.359-0.679-0.359-1.094c0-0.706,0.281-1.287,0.842-1.742c0.561-0.456,1.318-0.684,2.275-0.684
		c0.871,0,1.613,0.168,2.229,0.502C269.824,80.763,270.215,81.185,270.379,81.695z"/>
	<path fill="#FFFFFF" d="M273.715,84.525l-0.377,2.249l-1.865,2.625h-1.094L271.875,87h-1.146l0.414-2.475H273.715z"/>
	<path fill="#FFFFFF" d="M283.012,77.669L281.453,87H279l0.168-1.044c-0.564,0.833-1.248,1.249-2.049,1.249
		c-0.625,0-1.162-0.246-1.613-0.738s-0.678-1.196-0.678-2.112c0-1.135,0.313-2.16,0.938-3.076s1.426-1.374,2.4-1.374
		c0.834,0,1.398,0.328,1.689,0.985l0.535-3.221H283.012z M279.57,82.549c0.012-0.072,0.02-0.149,0.02-0.231
		c0-0.196-0.07-0.362-0.209-0.499s-0.305-0.205-0.5-0.205c-0.469,0-0.807,0.361-1.014,1.083c-0.207,0.723-0.311,1.323-0.311,1.802
		c0,0.629,0.244,0.943,0.732,0.943c0.484,0,0.807-0.314,0.965-0.943L279.57,82.549z"/>
	<path fill="#FFFFFF" d="M286.498,87.205c-0.963,0-1.77-0.286-2.424-0.858c-0.654-0.571-0.98-1.352-0.98-2.341
		c0-1.189,0.379-2.167,1.137-2.933c0.76-0.766,1.719-1.148,2.875-1.148c1.059,0,1.896,0.3,2.52,0.898
		c0.621,0.6,0.934,1.339,0.934,2.219c0,1.308-0.4,2.329-1.201,3.063C288.559,86.838,287.605,87.205,286.498,87.205z M286.607,85.523
		c0.479,0,0.803-0.355,0.973-1.066c0.172-0.711,0.258-1.306,0.258-1.784c0-0.729-0.266-1.094-0.793-1.094
		c-0.471,0-0.795,0.363-0.975,1.09c-0.18,0.728-0.27,1.321-0.27,1.781C285.801,85.166,286.068,85.523,286.607,85.523z"/>
	<path fill="#FFFFFF" d="M295.691,80.096h2.35l-0.178,1.066c0.512-0.848,1.221-1.271,2.129-1.271c0.865,0,1.449,0.424,1.752,1.271
		c0.445-0.825,1.133-1.237,2.063-1.237c0.611,0,1.1,0.172,1.467,0.516c0.365,0.345,0.549,0.809,0.549,1.392
		c0,0.187-0.02,0.412-0.061,0.677L305.012,87h-2.627l0.689-4.095c0.033-0.21,0.049-0.371,0.049-0.485
		c0-0.401-0.186-0.602-0.553-0.602c-0.225,0-0.41,0.084-0.557,0.253c-0.148,0.169-0.264,0.492-0.346,0.971L301.004,87h-2.551
		l0.691-4.095c0.041-0.251,0.061-0.429,0.061-0.533c0-0.21-0.059-0.36-0.178-0.451c-0.117-0.091-0.24-0.137-0.367-0.137
		c-0.129,0-0.287,0.054-0.479,0.161c-0.191,0.106-0.33,0.427-0.416,0.96L297.074,87h-2.537L295.691,80.096z"/>
	<path fill="#FFFFFF" d="M310.055,87.205c-0.963,0-1.77-0.286-2.424-0.858c-0.654-0.571-0.98-1.352-0.98-2.341
		c0-1.189,0.379-2.167,1.137-2.933c0.76-0.766,1.719-1.148,2.875-1.148c1.059,0,1.896,0.3,2.52,0.898
		c0.621,0.6,0.934,1.339,0.934,2.219c0,1.308-0.4,2.329-1.201,3.063C312.115,86.838,311.162,87.205,310.055,87.205z M310.164,85.523
		c0.479,0,0.803-0.355,0.973-1.066c0.172-0.711,0.258-1.306,0.258-1.784c0-0.729-0.266-1.094-0.793-1.094
		c-0.471,0-0.795,0.363-0.975,1.09c-0.18,0.728-0.27,1.321-0.27,1.781C309.357,85.166,309.625,85.523,310.164,85.523z"/>
	<path fill="#FFFFFF" d="M315.748,80.096h2.301l-0.275,1.665c0.48-1.246,1.213-1.87,2.199-1.87c0.078,0,0.186,0.012,0.322,0.034
		l-0.309,2.461c-0.236-0.014-0.395-0.021-0.471-0.021c-0.57,0-0.988,0.133-1.256,0.399c-0.266,0.267-0.457,0.738-0.57,1.416
		L317.221,87h-2.627L315.748,80.096z"/>
	<path fill="#FFFFFF" d="M327.67,84.054h-4.758c-0.021,0.188-0.033,0.327-0.033,0.419c0,0.303,0.096,0.538,0.289,0.708
		c0.195,0.169,0.439,0.254,0.736,0.254c0.561,0,0.957-0.292,1.189-0.875l2.324,0.376c-0.301,0.677-0.787,1.224-1.461,1.643
		c-0.672,0.418-1.418,0.627-2.238,0.627c-1.029,0-1.865-0.293-2.506-0.878c-0.639-0.586-0.959-1.385-0.959-2.396
		c0-1.099,0.377-2.041,1.135-2.826c0.756-0.787,1.744-1.18,2.967-1.18c1.033,0,1.857,0.305,2.471,0.914
		c0.613,0.61,0.92,1.42,0.92,2.43C327.746,83.496,327.721,83.758,327.67,84.054z M325.182,82.728
		c0.023-0.142,0.035-0.251,0.035-0.328c0-0.246-0.076-0.46-0.23-0.643c-0.152-0.183-0.365-0.273-0.639-0.273
		c-0.291,0-0.555,0.11-0.793,0.332c-0.236,0.221-0.383,0.524-0.438,0.912H325.182z"/>
	<path fill="#FFFFFF" d="M331.15,84.525L330.732,87h-2.563l0.41-2.475H331.15z"/>
</g>
<g>
	<path fill="#13AE67" d="M90.541,49.63c-2.857,13.885-11.787,22.904-24.199,29.065c-6.027,3.035-12.769,4.822-19.555,4.822
		c-4.286,0-8.707-0.715-12.77-2.1c-2.143-0.714-6.429-3.526-8.215-3.526c-2.232,0-4.911,9.108-8.795,9.108
		c-2.813,0-3.661-1.385-4.867-3.438c-0.402-0.759-0.714-1.026-0.714-1.964c0-4.644,8.84-8.26,8.84-10.85
		c0-0.402-1.161-2.768-1.34-3.661c-0.268-1.518-0.401-3.081-0.401-4.644c0-14.198,11.295-24.333,23.976-28.529
		c9.152-3.036,28.619,0.491,34.825-5.402c2.456-2.277,3.661-4.375,7.411-4.375c5.045,0,6.697,13.082,6.697,16.876
		C91.434,43.87,91.122,46.772,90.541,49.63z M65.717,46.996c-15.805,0-25.985,6.608-36.298,17.993
		c-0.536,0.581-0.848,1.206-0.848,2.009c0,1.563,1.295,2.857,2.857,2.857c0.804,0,1.429-0.313,2.009-0.848
		c2.188-1.965,4.152-4.108,6.295-6.117c8.082-7.278,15.001-10.18,25.985-10.18c1.563,0,2.857-1.295,2.857-2.857
		S67.28,46.996,65.717,46.996z"/>
</g>
<g>
	<path fill="#FFFFFF" d="M87.637,105.769l-6.563,22.682h-6.952l-3.486-13.617c-0.232-0.916-0.355-1.853-0.369-2.81h-0.144
		c-0.096,1.08-0.239,1.989-0.431,2.728L65.94,128.45h-6.87l-6.46-22.682h6.768l3.302,15.053c0.137,0.602,0.246,1.429,0.328,2.481
		h0.144c0.068-1.012,0.198-1.866,0.39-2.563l4.061-14.971h6.275l3.63,15.073c0.096,0.41,0.198,1.244,0.308,2.502h0.164
		c0.041-0.725,0.157-1.559,0.349-2.502l3.158-15.073H87.637z"/>
	<path fill="#FFFFFF" d="M123.403,105.769l-6.563,22.682h-6.952l-3.486-13.617c-0.232-0.916-0.355-1.853-0.369-2.81h-0.144
		c-0.096,1.08-0.239,1.989-0.431,2.728l-3.753,13.699h-6.87l-6.46-22.682h6.768l3.302,15.053c0.137,0.602,0.246,1.429,0.328,2.481
		h0.144c0.068-1.012,0.198-1.866,0.39-2.563l4.061-14.971h6.275l3.63,15.073c0.096,0.41,0.198,1.244,0.308,2.502h0.164
		c0.041-0.725,0.157-1.559,0.349-2.502l3.158-15.073H123.403z"/>
	<path fill="#FFFFFF" d="M159.168,105.769l-6.563,22.682h-6.952l-3.486-13.617c-0.232-0.916-0.355-1.853-0.369-2.81h-0.144
		c-0.096,1.08-0.239,1.989-0.431,2.728l-3.753,13.699h-6.87l-6.46-22.682h6.768l3.302,15.053c0.137,0.602,0.246,1.429,0.328,2.481
		h0.144c0.068-1.012,0.198-1.866,0.39-2.563l4.061-14.971h6.275l3.63,15.073c0.096,0.41,0.198,1.244,0.308,2.502h0.164
		c0.041-0.725,0.157-1.559,0.349-2.502l3.158-15.073H159.168z"/>
	<path fill="#FFFFFF" d="M159.743,125.477c0-1.025,0.39-1.866,1.169-2.522s1.709-0.984,2.789-0.984c1.094,0,2.017,0.335,2.769,1.005
		s1.128,1.504,1.128,2.502c0,1.053-0.376,1.904-1.128,2.553c-0.752,0.649-1.702,0.975-2.851,0.975c-1.066,0-1.979-0.335-2.738-1.005
		S159.743,126.488,159.743,125.477z"/>
	<path fill="#FFFFFF" d="M194.135,128.45h-6.604v-12.92c0-3.486-1.271-5.229-3.814-5.229c-1.271,0-2.321,0.485-3.148,1.456
		s-1.241,2.229-1.241,3.773v12.92h-6.624V94.879h6.624v14.294h0.082c1.736-2.639,4.074-3.958,7.014-3.958
		c5.14,0,7.711,3.104,7.711,9.311V128.45z"/>
	<path fill="#FFFFFF" d="M213.166,128.184c-0.998,0.547-2.509,0.82-4.532,0.82c-4.813,0-7.219-2.529-7.219-7.588v-10.705h-3.732
		v-4.942h3.732v-4.983l6.583-1.887v6.87h5.168v4.942h-5.168v9.557c0,2.42,0.957,3.63,2.871,3.63c0.738,0,1.504-0.219,2.297-0.656
		V128.184z"/>
	<path fill="#FFFFFF" d="M252.787,128.45h-6.604v-12.94c0-3.473-1.265-5.209-3.794-5.209c-1.176,0-2.153,0.526-2.933,1.579
		s-1.169,2.338-1.169,3.855v12.715h-6.604v-13.104c0-3.363-1.251-5.045-3.753-5.045c-1.244,0-2.239,0.502-2.984,1.508
		c-0.745,1.004-1.117,2.334-1.117,3.988v12.653h-6.624v-22.682h6.624v3.548h0.082c0.793-1.299,1.846-2.307,3.158-3.025
		c1.313-0.717,2.693-1.076,4.143-1.076c3.186,0,5.366,1.429,6.542,4.286c1.75-2.857,4.293-4.286,7.629-4.286
		c4.936,0,7.403,3.049,7.403,9.146V128.45z"/>
	<path fill="#FFFFFF" d="M258.344,128.45V94.879h6.604v33.571H258.344z"/>
	<path fill="#FFFFFF" d="M291.013,118.976h-14.93c0.232,3.514,2.352,5.271,6.357,5.271c2.502,0,4.71-0.615,6.624-1.846v4.86
		c-2.064,1.162-4.771,1.743-8.121,1.743c-3.609,0-6.416-1.019-8.418-3.056c-2.004-2.037-3.005-4.874-3.005-8.511
		c0-3.623,1.066-6.565,3.199-8.828s4.813-3.395,8.039-3.395c3.213,0,5.725,0.975,7.536,2.922c1.812,1.949,2.718,4.625,2.718,8.029
		V118.976z M284.84,114.833c0-3.391-1.374-5.086-4.122-5.086c-1.135,0-2.14,0.465-3.015,1.395s-1.422,2.16-1.641,3.691H284.84z"/>
	<path fill="#FFFFFF" d="M295.873,107.143c1.025-0.574,2.396-1.039,4.111-1.395s3.183-0.533,4.399-0.533
		c6.344,0,9.516,3.179,9.516,9.536v13.699h-6.296v-3.302h-0.082c-1.545,2.57-3.808,3.855-6.788,3.855
		c-2.146,0-3.866-0.611-5.157-1.836c-1.293-1.223-1.938-2.888-1.938-4.993c0-4.348,2.591-6.877,7.772-7.588l6.234-0.841
		c0-2.639-1.374-3.958-4.122-3.958c-2.707,0-5.257,0.82-7.649,2.461V107.143z M303.358,118.176c-2.393,0.314-3.589,1.395-3.589,3.24
		c0,0.848,0.29,1.531,0.871,2.051s1.364,0.779,2.349,0.779c1.354,0,2.468-0.479,3.343-1.436s1.313-2.146,1.313-3.568v-1.62
		L303.358,118.176z"/>
	<path fill="#FFFFFF" d="M333.978,99.985c-0.902-0.355-1.757-0.533-2.563-0.533c-2.27,0-3.404,1.258-3.404,3.773v2.543h5.168v4.942
		h-5.168v17.739h-6.624v-17.739h-3.794v-4.942h3.794v-2.912c0-2.584,0.841-4.648,2.522-6.193s3.89-2.317,6.624-2.317
		c1.395,0,2.543,0.144,3.445,0.431V99.985z"/>
	<path fill="#FFFFFF" d="M333.301,125.477c0-1.025,0.39-1.866,1.169-2.522s1.709-0.984,2.789-0.984c1.094,0,2.017,0.335,2.769,1.005
		s1.128,1.504,1.128,2.502c0,1.053-0.376,1.904-1.128,2.553c-0.752,0.649-1.702,0.975-2.851,0.975c-1.066,0-1.979-0.335-2.737-1.005
		C333.68,127.329,333.301,126.488,333.301,125.477z"/>
	<path fill="#FFFFFF" d="M363.262,127.609c-1.586,0.93-3.842,1.395-6.768,1.395c-3.459,0-6.255-1.053-8.388-3.158
		s-3.199-4.833-3.199-8.183c0-3.855,1.148-6.894,3.445-9.116c2.297-2.221,5.359-3.332,9.188-3.332c2.584,0,4.498,0.355,5.742,1.066
		v5.681c-1.518-1.107-3.172-1.661-4.963-1.661c-2.023,0-3.647,0.615-4.87,1.846c-1.225,1.23-1.836,2.919-1.836,5.065
		c0,2.078,0.581,3.716,1.743,4.911c1.162,1.197,2.741,1.795,4.737,1.795c1.764,0,3.486-0.561,5.168-1.682V127.609z"/>
	<path fill="#FFFFFF" d="M366.604,117.212c0-3.732,1.118-6.665,3.353-8.798c2.236-2.133,5.24-3.199,9.014-3.199
		c3.65,0,6.549,1.05,8.695,3.148s3.22,4.918,3.22,8.459c0,3.719-1.101,6.679-3.302,8.88s-5.182,3.302-8.941,3.302
		c-3.691,0-6.621-1.057-8.787-3.168C367.688,123.723,366.604,120.849,366.604,117.212z M373.311,117.13
		c0,4.525,1.846,6.788,5.537,6.788c3.541,0,5.312-2.324,5.312-6.973c0-4.43-1.784-6.645-5.353-6.645
		c-1.736,0-3.086,0.595-4.051,1.784C373.793,113.274,373.311,114.956,373.311,117.13z"/>
	<path fill="#FFFFFF" d="M431.143,128.45h-6.604v-12.94c0-3.473-1.265-5.209-3.794-5.209c-1.176,0-2.153,0.526-2.933,1.579
		s-1.169,2.338-1.169,3.855v12.715h-6.604v-13.104c0-3.363-1.251-5.045-3.753-5.045c-1.244,0-2.239,0.502-2.984,1.508
		c-0.745,1.004-1.117,2.334-1.117,3.988v12.653h-6.624v-22.682h6.624v3.548h0.082c0.793-1.299,1.846-2.307,3.158-3.025
		c1.313-0.717,2.693-1.076,4.143-1.076c3.186,0,5.366,1.429,6.542,4.286c1.75-2.857,4.293-4.286,7.629-4.286
		c4.936,0,7.403,3.049,7.403,9.146V128.45z"/>
</g>
</svg>